<svg width="29" height="30" viewBox="0 0 29 30" fill="none" xmlns="http://www.w3.org/2000/svg">
<g clip-path="url(#clip0_1281_78401)">
<mask id="mask0_1281_78401" style="mask-type:luminance" maskUnits="userSpaceOnUse" x="0" y="0" width="29" height="30">
<path d="M28.074 0H0V29.433H28.074V0Z" fill="white"/>
</mask>
<g mask="url(#mask0_1281_78401)">
<path d="M7.46613 18.2881L11.9031 7.85004C12.5031 6.42604 13.1821 3.45606 14.3591 2.43506C17.1411 0.0190628 17.8321 4.37705 18.3211 5.95105C20.6851 13.5681 22.6771 21.311 24.5071 29.071L26.6681 28.3321C22.8723 23.0587 18.5866 18.1559 13.8681 13.6891C10.3451 10.3731 6.70509 6.94405 1.60809 6.86805C1.27009 6.86305 -0.723848 7.65405 0.280152 8.04505C8.69336 11.3256 17.3991 13.7997 26.2802 15.4341C26.3608 15.0774 26.4421 14.7211 26.5241 14.3651C18.3589 17.6873 9.94064 20.3498 1.3501 22.3271L2.54413 22.9111L4.99609 21.1931C6.04809 20.9931 6.84412 19.6571 5.30212 19.9531C4.33544 20.071 3.40441 20.3911 2.56964 20.8926C1.73488 21.3942 1.01506 22.0659 0.457093 22.8641C-0.0549075 23.5641 1.34615 23.5181 1.65015 23.4481C10.4406 21.4194 19.0545 18.6901 27.4091 15.2861C27.8711 15.0981 28.5091 14.3741 27.6531 14.2161C18.9132 12.6141 10.3453 10.1848 2.06512 6.96106L0.737122 8.13807C6.33712 8.22307 11.0061 13.6521 14.6661 17.3861C18.2609 21.077 21.5773 25.0291 24.5881 29.2101C24.9881 29.7541 26.9261 29.2221 26.7491 28.4711C25.3185 22.4044 23.7491 16.3711 22.0411 10.3711C21.2471 7.6031 20.5821 0.723058 16.8091 0.0550578C14.5381 -0.344942 12.7881 1.41007 11.7971 3.20807C9.14812 8.00807 7.3711 13.519 5.2251 18.566C4.9251 19.266 7.1541 19.0191 7.4671 18.2851L7.46613 18.2881Z" fill="#1B2333"/>
</g>
</g>
<defs>
<clipPath id="clip0_1281_78401">
<rect width="29" height="30" fill="white"/>
</clipPath>
</defs>
</svg>
