<svg width="45" height="44" viewBox="0 0 45 44" fill="none" xmlns="http://www.w3.org/2000/svg">
<g clip-path="url(#clip0_1281_78399)">
<path d="M0.01101 30.873C2.43701 39.487 8.83701 45.5011 18.045 42.1511C26.158 39.1991 33.839 30.2871 33.609 21.3411C33.5914 19.2472 33.0741 17.1878 32.1001 15.3342C31.126 13.4805 29.7234 11.8863 28.009 10.6841C26.194 9.51808 23.645 8.63004 22.252 10.808C20.205 14.008 21.902 20.379 23.89 23.178C24.6963 24.4734 25.9658 25.413 27.4403 25.8055C28.9147 26.1981 30.4834 26.0141 31.827 25.2911C36.292 23.0401 39.662 17.3911 41.747 13.0911C43.209 10.0731 47.161 2.13406 42.496 0.0390578C41.996 -0.183942 40.463 0.539046 41.158 0.852046C45.039 2.59505 41.752 9.56208 40.611 12.1291C38.911 15.9601 36.387 20.2711 33.146 23.0091C26.33 28.7631 23.246 19.4311 23.286 14.4481C23.302 12.7361 23.032 12.1841 24.602 11.4391C26.172 10.6941 26.947 11.5561 28.083 12.6291C29.4026 13.9199 30.4131 15.4924 31.039 17.2291C33.829 24.7021 29.379 32.8581 23.703 37.6811C19.403 41.3381 13.32 43.8811 8.08401 40.6501C4.49101 38.4371 2.79101 34.3251 1.69201 30.4241C1.52701 29.8401 -0.15299 30.2921 0.01101 30.8741V30.873Z" fill="#1B2333"/>
</g>
<defs>
<clipPath id="clip0_1281_78399">
<rect width="44.704" height="43.093" fill="white"/>
</clipPath>
</defs>
</svg>
