<svg width="65" height="72" viewBox="0 0 65 72" fill="none" xmlns="http://www.w3.org/2000/svg">
<g clip-path="url(#clip0_1281_78407)">
<path d="M23.483 57.4403C24.9196 55.0385 28.1028 53.89 30.7509 53.5044C33.3539 53.1231 35.9435 53.2088 38.4905 52.4165C41.1368 51.5743 43.5785 50.1899 45.6599 48.3516C51.7998 42.9838 52.5228 34.4597 50.3238 27.0197C47.5964 17.7887 40.8998 11.3921 31.3018 9.7696C21.3815 8.09323 9.71617 14.711 7.08333 24.7249C5.92653 29.6568 6.37773 34.8294 8.37098 39.4866C10.2596 44.0353 13.0752 48.0159 12.436 53.1688C12.4036 53.4329 11.666 53.3897 11.6932 53.1432C12.4208 47.2793 8.58515 42.8947 6.93111 37.5929C5.43667 33.1736 5.30928 28.4064 6.56556 23.9135C9.13186 15.7808 17.9994 9.62529 26.3968 9.05261C30.6283 8.78833 34.8539 9.6544 38.6402 11.562C42.4265 13.4696 45.6372 16.3501 47.943 19.908C51.9204 26.3914 53.8148 35.3037 50.7451 42.5141C48.7148 46.9312 45.0476 50.3865 40.5177 52.1507C38.3184 53.005 35.9972 53.5041 33.6411 53.6295C30.3613 53.8797 26.0769 54.4234 24.1991 57.5633C24.071 57.7776 23.3459 57.6731 23.4859 57.4396L23.483 57.4403Z" fill="#4CB050"/>
<path d="M23.7842 57.5267C25.8537 54.2522 28.3195 53.646 32.028 52.99C36.8894 52.1314 41.235 51.1055 44.8659 47.7262C47.7971 45.1425 49.891 41.7432 50.8798 37.9631C51.4606 36.184 51.7243 34.3168 51.6588 32.4464C51.3385 29.8145 50.6911 27.2327 49.7316 24.761C48.2033 20.2169 45.1609 16.3354 41.1133 13.7659C37.1598 11.3942 32.6525 10.1029 28.0429 10.0211C18.7166 9.63313 7.08326 14.86 5.95747 25.2803C5.43984 30.0531 7.92771 35.0947 9.34167 39.5211C10.864 44.2878 14.1941 47.7987 12.7087 53.1007C12.6345 53.3662 11.9043 53.2926 11.9657 53.0742C13.5055 47.5769 9.77883 43.8507 8.41917 38.8904C8.09008 37.6917 7.58984 36.7563 7.21047 35.5887C6.75439 34.1822 6.38359 32.7007 5.96837 31.2756C5.24079 29.0998 5.01711 26.7872 5.31422 24.5124C6.69585 15.9337 15.8555 10.3943 23.9688 9.70654C31.5669 9.06386 40.4254 11.0131 45.8236 16.7601C49.0622 20.2079 50.7914 24.8797 51.8099 29.4199C52.4228 31.6371 52.5037 33.9677 52.0461 36.2221C51.6535 38.2516 51.015 40.2256 50.1447 42.1005C48.2097 45.9855 45.0547 49.1293 41.1628 51.0504C39.0075 52.0063 36.7298 52.6582 34.395 52.9874C32.7086 53.2844 30.982 53.4962 29.3282 53.9519C28.3028 54.1803 27.3398 54.6302 26.5067 55.2702C25.6737 55.9102 24.9908 56.7248 24.506 57.6567C24.3721 57.8682 23.6492 57.76 23.7928 57.5329L23.7842 57.5267Z" fill="#4CB050"/>
<path d="M23.9071 57.5742C26.4699 55.2717 29.6714 53.8014 33.088 53.3579C35.9948 52.8685 38.8198 51.9787 41.4823 50.7138C43.7072 49.8379 45.8709 48.8138 47.9587 47.6484C55.7786 42.4983 53.3681 31.9594 49.8792 24.889C45.6714 16.3538 37.5434 11.6343 28.0918 11.7617C19.9825 11.8707 10.9371 14.3623 7.92135 22.762C6.11785 27.7885 6.99753 33.537 8.56474 38.4894C10.0914 43.3238 13.1866 47.9286 12.932 53.1117C12.919 53.3713 12.1768 53.3435 12.1892 53.0861C12.4637 47.4602 8.77419 42.1573 7.32297 36.8004C6.12098 32.3631 5.61385 27.3969 7.10373 22.959C9.74321 15.0854 17.4751 12.2659 25.0722 11.5475C32.8671 10.8101 41.0382 12.7292 46.4542 18.6999C49.7924 22.4371 52.1453 26.9481 53.3 31.8243C54.1469 35.4928 54.4889 40.0281 52.6586 43.467C50.3961 47.7148 46.0865 49.0741 42.0058 50.9942C39.5427 52.204 36.9289 53.0788 34.2337 53.5953C30.5537 54.2458 27.3344 55.1491 24.5491 57.7811C24.381 57.942 23.6686 57.8037 23.9137 57.5717L23.9071 57.5742Z" fill="#4CB050"/>
<path d="M24.0031 57.9818C24.0108 57.9749 18.4072 54.8678 17.8465 54.6216C16.7554 54.1359 15.632 53.7263 14.4845 53.3955C13.2146 53.0339 10.7843 52.0113 10.6827 53.9407C10.6376 54.7721 10.6203 54.8172 11.2328 55.2566C11.4799 55.4377 10.9027 55.5381 10.8039 55.5147C9.98898 55.319 7.52338 54.5171 7.9577 56.5895C9.18818 57.6102 8.8243 58.5235 6.86604 59.3293C7.27221 59.9601 7.84802 60.4635 8.52736 60.7818C8.87936 60.9951 8.24116 61.1291 8.06659 61.0576C8.1163 61.4566 8.16609 61.859 8.216 62.2649C8.59371 62.6385 9.01389 62.9665 9.46796 63.2423C9.99387 63.6102 10.5389 63.9499 11.1008 64.2601C12.2792 64.9189 13.4749 65.5593 14.6634 66.2086C15.5955 66.7118 17.7218 68.2181 18.7046 68.0518L19.2961 68.2713L19.5647 66.1937C19.5552 66.2369 19.1918 65.9124 19.2763 65.9893C19.0701 65.8121 19.5018 65.7125 19.6074 65.721C20.6564 65.9879 21.2583 65.3679 21.4133 63.8611C21.0135 63.534 20.602 63.2215 20.1788 62.9237L20.77 62.7195C23.4712 64.8484 22.4788 60.0476 22.3266 60.2418C21.8243 59.883 22.126 59.8325 23.2317 60.0904C24.4776 59.8027 24.7084 59.1945 23.924 58.2658C23.4693 58.1009 24.0521 57.8648 24.3097 57.9582C25.4588 58.3744 25.6194 59.2702 24.536 60.1741C23.537 61.0082 22.3818 60.3122 21.4049 59.6859C21.0519 59.4595 21.6939 59.3462 21.8657 59.4102C25.3903 60.7271 23.0339 65.1814 20.1208 62.8858C19.8693 62.6853 20.563 62.5785 20.7118 62.6806C21.6825 63.3289 23.3575 64.3605 22.2595 65.6506C21.7115 66.2954 21.5382 65.9269 20.836 66.1968C19.9656 66.5301 20.2224 66.0244 20.2274 65.9883C20.5598 66.2264 20.8797 66.4814 21.1859 66.7523C21.9439 67.7062 21.6541 68.4916 20.4379 68.758C18.5212 69.1779 15.6882 67.3001 14.1279 66.4544C12.72 65.6905 11.2753 64.9495 9.90217 64.1273C9.08649 63.6393 7.34674 62.7273 7.0209 61.805C6.85386 61.3304 6.63904 61.1511 7.01669 60.7642C7.11704 60.661 8.01827 60.4303 7.93831 60.573C7.55895 61.2281 5.4642 59.3297 6.15179 58.1693C6.88816 56.9134 8.70426 57.6672 9.58059 58.1556C9.9478 58.3592 9.25024 58.5028 9.04591 58.4002C7.55577 57.6358 5.92053 55.2515 8.3835 54.6418C8.99901 54.4895 10.1234 55.1412 10.5176 54.9948C10.0848 55.1563 9.11367 54.3727 9.3518 53.586C9.93917 51.6492 13.7232 52.7297 14.8309 53.0466C18.3451 54.1621 21.6806 55.7769 24.7353 57.8415C24.8281 57.9011 24.8771 57.9842 24.7878 58.0685L24.652 58.1963C24.4835 58.3553 23.7699 58.2163 24.0164 57.9859L24.0031 57.9818Z" fill="#4CB050"/>
<path d="M11.2339 53.7582L11.2427 53.7028C11.2703 53.5158 11.5914 53.5196 11.7184 53.5406C14.5173 54.0038 21.6947 54.5216 22.716 57.9805C22.7261 58.0054 22.7274 58.0331 22.7198 58.0589C22.7121 58.0847 22.6959 58.1072 22.6739 58.1226C21.5685 59.1137 19.5636 58.1068 18.3966 57.6886C16.623 57.0523 14.172 56.091 12.8694 54.7168C12.8549 54.7057 12.8432 54.6913 12.8353 54.6747C12.8275 54.6582 12.8237 54.64 12.8243 54.6217C12.8249 54.6034 12.8298 54.5855 12.8387 54.5695C12.8477 54.5534 12.8603 54.5398 12.8755 54.5296C13.9668 53.6732 16.5943 54.7539 17.6848 55.1076C18.5023 55.3725 23.2756 56.9594 22.9636 58.3328C22.3728 60.9262 12.3668 55.7001 11.1979 54.8913C10.9315 54.7065 11.2902 54.5754 11.4717 54.5838C13.3219 54.8119 15.1213 55.3457 16.7965 56.1635C18.4112 56.7229 19.9426 57.4987 21.349 58.4695C21.5892 58.6655 21.0227 58.7501 20.92 58.7276C19.1278 58.2438 17.3665 57.6517 15.646 56.9546C14.3161 56.5924 13.0405 56.0544 11.8529 55.3548C11.5747 55.1543 12.2706 55.088 12.37 55.1185C15.0458 55.9375 19.2252 57.6143 20.8342 60.0406C20.9274 60.1822 20.6337 60.248 20.5668 60.2604C19.5122 60.2796 18.4761 59.9826 17.5917 59.4078C15.5893 58.5747 13.6677 57.5593 11.8512 56.3744C11.5663 56.1671 12.2811 56.116 12.3683 56.138C15.6365 56.9578 18.5983 59.3622 21.2543 61.3579C21.5348 61.5682 20.8304 61.6199 20.7372 61.5942C19.668 61.2489 18.6333 60.8047 17.6465 60.2675C16.953 59.9308 16.2801 59.5679 15.5998 59.2129C15.3571 59.0862 12.8662 57.9658 12.8411 57.8926C12.6948 57.4543 15.4015 58.8696 15.6928 59.0467C17.0629 60.0104 18.5212 60.8421 20.0482 61.5306L19.5311 61.767C17.6089 59.8913 15.102 58.7058 13.1636 56.8575C12.9084 56.6147 13.5737 56.5894 13.6816 56.6209C16.4394 57.4529 18.7212 59.5257 21.5071 60.3235L20.9539 60.5148C20.6598 59.3696 18.0403 58.2656 17.1236 57.7044C16.1357 57.1873 15.1762 56.6178 14.2491 55.9983C13.9706 55.7835 14.6742 55.737 14.7671 55.7617C17.6789 56.5489 20.1445 58.4849 23.0077 59.4085L22.4896 59.645C20.4497 57.7083 17.3431 56.9928 15.0657 55.3746C14.7929 55.18 15.4768 55.1012 15.5838 55.138C16.5919 55.5239 17.5786 55.9635 18.5398 56.4548C19.1 56.7165 19.6685 56.9609 20.2323 57.2156C20.3903 57.2868 22.4027 58.4325 22.12 58.4886C21.7685 58.5574 20.2709 57.414 19.9075 57.2136C19.1119 56.812 18.3391 56.3664 17.593 55.879C17.3599 55.7142 17.8403 55.6167 17.9231 55.6109C19.9414 55.5822 22.2185 57.1994 23.9713 58.0345C24.3381 58.2095 23.6864 58.3743 23.5105 58.3102C22.91 58.0917 21.0961 57.7212 21.0365 56.9027C21.0263 56.7521 21.3296 56.7231 21.4152 56.729C22.8238 56.838 24.6938 57.5054 25.0931 59.0481C25.1029 59.073 25.1041 59.1004 25.0964 59.126C25.0887 59.1516 25.0726 59.1739 25.0507 59.1893C24.1603 60.0045 21.9489 58.7077 21.6722 57.7802C21.6267 57.6275 21.8295 57.5724 21.9396 57.5604C23.0851 57.4365 24.7199 58.2096 24.4488 59.5027C24.4287 59.5976 24.3437 59.6296 24.2585 59.6564C23.6117 59.8509 22.3272 59.9463 21.8902 59.258C21.4223 58.5203 22.0799 57.919 22.856 58.0846C23.3141 58.1841 23.971 58.6154 23.2124 59.0595C23.2323 59.0477 19.2101 56.4602 18.5722 56.1774C16.8958 55.4016 15.1691 54.7393 13.4038 54.1952L13.9219 53.9586C13.4845 53.6111 17.6664 56.1618 16.0485 54.7239C15.5514 54.3194 14.9781 54.019 14.3626 53.8405C13.7411 53.6155 10.5445 52.4702 13.0231 53.5021C14.3538 54.056 15.1354 54.4451 13.3091 53.7891C13.2184 53.7567 11.28 53.0466 11.3192 53.4921C11.3463 53.8051 13.058 54.4711 13.1181 54.487L12.601 54.7234C11.7915 53.7731 11.1513 54.2227 11.8051 54.7563L11.1205 54.8763L10.62 54.3977L11.3045 54.2776C11.8395 56.1502 14.409 57.2864 16.046 57.9224C16.4969 58.0975 15.9175 58.3308 15.6605 58.231C13.8816 57.5405 11.1578 56.3671 10.5827 54.3519C10.4922 54.0351 11.1396 54.1412 11.2673 54.2318C11.5064 54.3662 11.7044 54.5631 11.8401 54.8015C12.0111 55.031 11.2746 55.0193 11.1556 54.9216C8.87781 53.0572 12.1236 53.2377 13.2476 54.5587C13.4756 54.8262 12.8529 54.8274 12.7305 54.7951C11.9843 54.5948 10.538 53.927 10.2805 53.1182C10.2516 53.0284 10.307 52.9797 10.3822 52.9408C11.7315 52.2373 14.0707 53.4029 15.1062 54.2877C15.2825 54.4378 14.9722 54.5382 14.8749 54.5525C13.6831 54.725 12.1643 53.6049 11.2621 52.947C11.078 52.812 11.4066 52.6838 11.4945 52.682C13.1434 52.6225 16.8367 53.7147 17.8463 55.1093C17.8554 55.1251 17.86 55.143 17.8597 55.1611C17.8594 55.1793 17.8541 55.197 17.8445 55.2124C17.0561 56.4474 14.0318 54.7327 13.2718 54.1303C12.9978 53.9123 13.6921 53.866 13.7899 53.8937C14.7648 54.1735 25.0992 58.1056 23.1766 59.5799C23.0797 59.6409 22.9666 59.6713 22.8521 59.6672C22.7377 59.663 22.6271 59.6245 22.5349 59.5566L22.265 59.2987C22.2504 59.2875 22.2387 59.273 22.2309 59.2564C22.2231 59.2398 22.2194 59.2215 22.2201 59.2032C22.2208 59.1849 22.2259 59.1669 22.2349 59.151C22.2439 59.135 22.2566 59.1214 22.272 59.1113C23.3615 58.4664 23.3966 58.0847 22.3771 57.9663L22.6571 58.1921C23.1969 58.8455 24.9346 59.3177 23.7135 58.096C21.9531 57.2456 21.7108 57.1058 22.9866 57.6768L23.3909 57.8277C23.9214 58.5653 22.6784 57.8178 22.2779 57.6834C21.3018 57.3252 20.3506 56.9027 19.4304 56.4185C18.7729 56.091 18.4867 55.918 19.3478 56.3586C20.6264 57.0066 21.8313 57.7804 23.0711 58.4917C23.4259 58.6951 22.788 58.8434 22.6103 58.7674C20.1376 57.7167 17.7358 56.3243 15.1931 55.4509L15.7112 55.2143C17.991 56.834 21.0966 57.5497 23.1351 59.4847C23.3877 59.7251 22.7268 59.7566 22.6171 59.7213C19.7607 58.8003 17.2848 56.8605 14.3765 56.0746L14.8936 55.8382C16.3596 56.9694 18.1784 57.7791 19.7383 58.8014C20.377 59.2204 21.4685 59.654 21.6729 60.4463C21.7397 60.709 21.2581 60.6765 21.1198 60.6376C18.3436 59.8417 16.0573 57.7669 13.2936 56.9363L13.8117 56.6997C15.7497 58.546 18.2583 59.7342 20.1793 61.6091C20.4255 61.8489 19.7778 61.8886 19.6622 61.8455C17.0339 60.8769 14.6128 58.983 12.2024 57.571C11.8371 57.3577 12.5374 57.2217 12.7371 57.3265C15.3499 58.704 18.2756 60.5163 21.1239 61.2956L20.6068 61.532C18.0765 59.6315 15.1058 57.2374 11.9827 56.4548L12.5008 56.2182C13.6282 56.9606 14.8181 57.6034 16.0571 58.1395C16.6342 58.4167 17.2002 58.7253 17.7785 59.0034C18.1835 59.1972 19.6401 60.1983 19.2086 59.4183C18.1538 57.5169 13.8528 56.0067 11.9873 55.4346L12.5044 55.1983C14.0836 56.3393 16.4658 56.8557 18.2933 57.4898C18.571 57.5858 20.6516 58.5874 19.5736 58.0255C18.2805 57.3207 16.9463 56.6941 15.5781 56.1492C14.9724 55.9216 13.0722 54.9727 12.4638 55.1379C13.1622 55.4176 13.8398 55.7469 14.4914 56.123C15.5853 56.634 16.6739 57.095 17.8079 57.5126C18.5827 57.7966 20.5559 58.8219 21.3228 58.5741C23.4237 57.8941 19.0376 56.0731 18.6846 55.9308C17.5577 55.4709 16.3893 55.12 15.1954 54.8829C14.258 54.699 13.7325 54.4806 14.4917 55.2752C15.3037 55.869 16.1973 56.3423 17.1447 56.6804C17.7442 56.9741 19.7393 58.0765 20.5277 57.9438C23.3211 57.4764 19.4376 55.8052 18.886 55.5939C18.3878 55.401 11.9528 53.9914 11.9817 53.8011C11.9405 54.0671 11.2015 54.0181 11.2379 53.7757L11.2339 53.7582Z" fill="#4CB050"/>
<path d="M12.4302 55.8416C14.2387 53.9442 19.5566 59.5926 19.7129 61.3362C19.7239 61.4506 19.5097 61.5011 19.4333 61.5034C18.2531 61.5706 13.6653 59.5067 15.5595 58.5049C17.4537 57.5031 23.2158 60.1457 22.319 62.6137C22.2889 62.6966 22.1274 62.7308 22.0544 62.7343C19.5467 62.8883 18.3294 58.6023 21.105 59.4137C23.7161 60.179 21.6194 63.4197 20.765 61.4125C19.784 59.1194 24.7423 60.3516 22.6261 62.317C20.4924 64.3039 15.25 59.614 15.7264 57.5386C15.7551 57.414 15.8965 57.3864 16.006 57.3714C17.7533 57.0984 19.8494 59.327 19.6319 60.9813C19.6258 61.0109 19.6121 61.0383 19.5921 61.0609C19.5722 61.0835 19.5466 61.1005 19.518 61.1102C17.9585 61.7166 16.266 60.6541 14.9499 59.8433C13.6027 59.0131 10.9212 57.6094 10.7771 55.8251C10.7649 55.6698 11.0713 55.6545 11.1559 55.6524C12.6723 55.6102 15.0855 58.9859 12.6176 59.0897C11.1946 59.1494 7.91568 56.7628 10.2822 55.7176C11.5657 55.1514 14.6816 57.1651 13.3119 58.3762C12.0614 59.4809 7.8869 57.5494 8.70703 55.8873C8.76151 55.7721 8.96665 55.7627 9.07046 55.7634C10.3977 55.7823 13.1996 58.1743 10.9287 58.6955C9.42424 59.0429 8.07169 56.425 9.79636 56.3604C9.90316 56.3563 10.3577 56.3868 10.246 56.6055C9.56695 57.9272 7.40249 57.0116 8.40466 55.8668C8.53124 55.7216 9.03726 55.6551 9.12078 55.8924C9.18958 56.1045 9.2111 56.3292 9.18384 56.5505C9.15657 56.7719 9.08118 56.9846 8.96295 57.1737C8.86141 57.3962 8.28772 57.3296 8.23441 57.0987C7.7944 55.1928 10.3244 54.6734 11.5098 55.8293C13.1403 57.4193 10.4233 57.6535 9.33579 57.2282C8.28896 56.8193 6.94289 54.7941 8.80795 54.7197C10.7155 54.6426 10.0373 56.4526 8.55901 56.6553C8.45445 56.6692 7.88792 56.527 8.14889 56.3682C9.89138 55.305 11.9839 57.8207 12.6131 59.1677C12.7146 59.3854 12.2511 59.4001 12.1484 59.3776C11.3051 59.2193 8.04568 57.1925 9.35764 56.2605C9.76656 55.9691 10.5137 56.5068 10.8188 56.6857C12.6421 57.8206 14.287 59.2196 15.6997 60.8372C15.9245 61.0993 15.3083 61.1153 15.1826 61.0735C13.3126 60.4289 11.5917 59.4139 10.1227 58.0893C9.96726 57.9363 10.2365 57.8311 10.354 57.8245C11.7787 57.7408 13.2049 58.7263 14.3608 59.4385C15.6565 60.2365 18.1903 61.5071 18.7409 62.9717C18.8233 63.1908 18.3945 63.2139 18.2762 63.1817C16.8376 62.7172 15.4859 62.0176 14.2759 61.1115C13.5132 60.6215 12.2149 60.1505 11.7685 59.3237C11.6699 59.1412 12.0523 59.0991 12.1357 59.1004C15.071 59.1586 18.8082 61.4763 20.4526 63.8605C20.4616 63.8763 20.4661 63.8943 20.4656 63.9125C20.4651 63.9307 20.4596 63.9484 20.4498 63.9638C19.2429 65.4042 13.887 61.5605 13.4621 60.5604C13.383 60.3734 13.7271 60.3299 13.8283 60.3373C16.3904 60.5391 19.4046 62.3793 21.4281 63.8446C21.5354 63.9225 21.4391 64.0258 21.361 64.0654C19.987 64.8177 16.4074 61.7822 15.6809 60.9246C15.5412 60.764 15.776 60.6697 15.9123 60.6598C17.6387 60.5229 21.7314 62.5266 21.8612 64.4538C21.8673 64.5468 21.7346 64.5857 21.6721 64.6083C19.8667 65.2078 16.7786 62.8829 16.0362 61.4143C15.961 61.2664 16.2172 61.2072 16.3036 61.1945C18.2329 60.9225 22.6282 63.2505 22.6891 65.3413C22.6913 65.4353 22.5654 65.4725 22.499 65.4961C20.7372 66.1019 17.6009 64.5065 16.6433 62.9993C16.5096 62.789 17.0313 62.7774 17.108 62.7894C18.4377 62.9391 20.4167 63.918 20.9208 65.2169C21.0193 65.4703 20.4851 65.4458 20.3676 65.4083C20.0631 65.3109 19.7896 65.1351 19.5746 64.8984C19.3596 64.6618 19.2107 64.3727 19.143 64.0602C19.1088 63.9388 19.2228 63.8858 19.3216 63.8558C20.0967 63.6214 21.1349 64.0817 21.0612 64.9936C21.0519 65.1179 20.8742 65.1486 20.7816 65.1608C20.3418 65.256 19.8828 65.1981 19.4805 64.9966C19.0781 64.7951 18.7568 64.4622 18.5697 64.053C18.5593 64.0279 18.5578 64.0001 18.5657 63.9741C18.5736 63.9481 18.5902 63.9257 18.6128 63.9106C19.5657 63.237 22.4184 63.7597 22.6383 64.9702C22.6369 64.9887 22.6314 65.0066 22.6221 65.0226C22.6128 65.0386 22.6 65.0523 22.5847 65.0627C22.1984 65.3148 21.7456 65.4459 21.2843 65.439C20.823 65.4321 20.3743 65.2876 19.9957 65.0241C19.9398 64.9867 19.8513 64.9189 19.9059 64.8395L20.0316 64.6597C20.0924 64.6026 20.1668 64.562 20.2478 64.5421C20.3288 64.5221 20.4135 64.5234 20.4938 64.5458C23.0231 65.0456 18.9933 67.7371 18.8926 65.0027C18.8877 64.8837 19.0905 64.8421 19.1721 64.8355L19.4634 64.8032C19.545 64.7869 19.6294 64.7918 19.7085 64.8173C19.7877 64.8429 19.8591 64.8883 19.9158 64.9491C20.0782 65.2082 20.0672 65.1605 19.9555 65.4367C19.922 65.5183 19.7661 65.5543 19.6908 65.5573C19.3754 65.6047 19.0531 65.5485 18.7722 65.3973C18.4914 65.246 18.2671 65.0077 18.1331 64.7182C18.0404 64.5344 18.4097 64.4892 18.4994 64.4951C18.8014 64.5094 19.0921 64.6147 19.3333 64.7971C19.5745 64.9795 19.7549 65.2305 19.8509 65.5173C19.9535 65.7348 19.4891 65.7507 19.3862 65.7272C18.3847 65.3416 17.5103 64.6849 16.8609 63.8307L17.5454 63.7106C17.8639 64.1656 18.5924 64.6892 18.4977 65.3104C18.4667 65.5228 18.073 65.5111 17.9329 65.4511C17.1951 65.1374 16.5789 64.5929 16.1768 63.8993C16.1665 63.8744 16.1651 63.8467 16.173 63.8208C16.1809 63.795 16.1976 63.7728 16.2201 63.758C16.5097 63.6008 16.8288 63.5056 17.1572 63.4784C17.4855 63.4512 17.816 63.4927 18.1274 63.6001C18.4389 63.7075 18.7247 63.8786 18.9664 64.1024C19.2082 64.3263 19.4008 64.5979 19.5319 64.9002C19.5423 64.9252 19.5436 64.9529 19.5357 64.9787C19.5278 65.0045 19.5112 65.0268 19.4886 65.0416C18.5037 65.6652 17.1297 65.0484 16.3861 64.3036C16.2664 64.1855 16.4133 64.0838 16.5276 64.0544C17.8011 63.7245 20.9366 65.8147 20.3398 67.0526C20.2692 67.1911 19.9949 67.1898 19.8776 67.1666C19.3288 67.0296 18.8194 66.767 18.3895 66.3994C17.9597 66.0318 17.6211 65.5693 17.4007 65.0485C17.3254 64.758 17.8918 64.8242 18.0282 64.8903C19.4033 65.5347 20.4867 66.6714 21.0646 68.0758C21.1336 68.299 20.7289 68.3155 20.5999 68.2858C19.3723 68.0273 17.4424 66.4028 17.2403 65.1409C17.2097 64.955 17.6394 64.9667 17.7161 64.9787C18.8204 65.1343 20.5717 66.2345 20.3097 67.5533C20.2644 67.7751 19.8977 67.7336 19.7448 67.694C18.3052 67.274 17.0612 66.3572 16.2338 65.1064C16.1342 64.9242 16.5176 64.8777 16.6 64.8833C17.2688 65.0102 17.8977 65.295 18.4343 65.714C18.9709 66.1329 19.3997 66.674 19.6849 67.2921C19.764 67.4791 19.4193 67.5197 19.3177 67.5154C17.464 67.421 15.6301 65.879 14.244 64.7427C14.0265 64.5651 14.481 64.4756 14.5741 64.4746C16.2652 64.4557 18.6843 66.5143 19.8989 67.5342C20.1409 67.738 19.5707 67.8152 19.4699 67.7923C16.9283 67.3323 14.5268 65.4164 12.4609 63.9321C12.1793 63.7302 12.9256 63.6688 13.0521 63.7278C14.6468 64.465 16.8314 65.3831 17.9807 66.7517C18.1462 66.9485 17.79 67.0327 17.6507 67.0208C15.9241 66.8724 14.2371 65.3529 12.8154 64.4629C12.2561 64.1117 8.61179 62.4807 8.86527 61.6094C8.88967 61.5566 8.92937 61.5125 8.97925 61.4826C9.02912 61.4528 9.08683 61.4387 9.14483 61.4422C10.5616 61.3553 12.0943 62.1529 13.3661 62.6608C15.2426 63.4039 16.9939 64.4305 18.559 65.7047C18.8009 65.9034 18.2308 65.9857 18.13 65.9628C16.7321 65.4943 15.4162 64.8094 14.2305 63.933C12.5029 63.0242 10.8243 62.0253 9.20144 60.9406C8.95326 60.7547 9.5316 60.6591 9.63039 60.6825C12.6886 61.3886 15.6047 63.4218 18.4602 64.6992L17.8692 64.9044C16.43 63.6741 14.8818 62.5774 13.2437 61.6279C12.6055 61.2347 11.9652 60.8482 11.3226 60.4683C11.2453 60.4225 9.2489 59.5103 10.3055 59.4059C11.1075 59.3234 13.637 61.4868 14.406 61.9374C15.6218 62.6512 16.8654 63.3524 18.1393 63.9491L17.5483 64.1543C16.1741 62.9876 14.6951 61.9504 13.1301 61.0558C12.6847 60.7892 9.57015 59.3458 9.49351 58.9827C9.39723 58.5257 10.9233 59.3967 11.0617 59.4807C11.7218 59.8948 12.3774 60.3162 13.0414 60.7253C14.3177 61.6466 15.7183 62.382 17.2014 62.9095L16.6843 63.1458C15.1952 61.5591 11.7259 59.3346 9.48474 58.9447L9.94943 58.7348C10.3229 59.9479 12.1586 61.0266 13.0631 61.7661C14.4393 62.8903 15.8433 63.9486 17.255 65.0267C17.505 65.2204 16.8198 65.3375 16.664 65.2319C15.4237 64.3893 14.237 63.481 12.9528 62.7019C12.3325 62.3268 11.701 61.9697 11.0561 61.6393C10.7072 61.4612 9.19917 60.624 9.43784 60.8532C10.6433 61.8534 11.9245 62.7586 13.2701 63.5605C14.5072 64.4917 15.801 65.345 17.1441 66.1155L16.5529 66.3198C15.1185 65.228 13.6047 64.2448 12.0241 63.3781C11.2001 63.0374 10.4047 62.6311 9.6458 62.163C8.97364 61.6121 11.1334 63.0142 11.341 63.1623C12.1601 63.7449 13.0032 64.2892 13.8422 64.8427C15.1168 65.7802 16.4617 66.6181 17.8651 67.349L17.2738 67.5532C15.2832 65.8965 12.4356 63.8045 9.89609 63.0648L10.4132 62.8284C12.9443 64.621 15.811 65.8311 18.4733 67.3963L17.8814 67.6018C17.0373 67.0043 16.1584 66.4601 15.323 65.8555C15.0601 65.6638 15.7685 65.5628 15.9149 65.6501C17.1975 66.3957 19.5162 66.9483 20.3386 68.1809C20.3716 68.2307 20.3325 68.2921 20.2965 68.323C19.2091 69.2545 17.3136 67.7031 16.4264 67.1988C14.8683 66.3136 13.261 65.5218 11.6734 64.6907C10.5242 64.2429 9.44797 63.6267 8.4802 62.8621C8.24317 62.6089 8.8784 62.5865 8.99728 62.6257C10.5817 63.134 12.1002 63.8287 13.5208 64.6952C13.5939 64.7409 13.6828 64.8548 13.5732 64.9222C12.1723 65.767 8.74747 63.5219 8.1006 62.4181C8.09163 62.4023 8.08715 62.3843 8.08765 62.3661C8.08815 62.3479 8.09361 62.3301 8.10344 62.3148C8.93266 60.9011 11.8141 62.9442 12.3167 63.8052C12.4576 64.0467 11.8534 64.021 11.7645 63.9964C10.3753 63.5935 8.77277 62.111 7.60634 61.2463C7.33754 61.0466 8.05481 60.9662 8.1973 61.0411C8.87827 61.3842 9.50928 61.8186 10.0728 62.3322C10.3198 62.5708 9.62277 62.6322 9.48185 62.5375C9.29436 62.4368 9.1333 62.2932 9.01181 62.1185C8.89032 61.9437 8.81185 61.7428 8.78276 61.532C8.76086 61.4149 8.9962 61.3718 9.06231 61.3648C12.1272 60.8994 16.2833 64.1652 18.0364 66.3529C18.2511 66.6205 17.6527 66.6334 17.5193 66.5893C15.3464 65.8727 13.3765 63.7279 11.6019 62.3272C11.351 62.1295 12.0427 62.014 12.1928 62.122C13.3097 62.8966 14.2621 63.861 15.3295 64.7015L14.681 64.8666C13.6687 63.9714 11.0063 62.3836 10.7708 61.0699C10.7382 60.8845 11.1732 60.8969 11.2465 60.9077C13.4969 61.2267 15.4535 63.2381 17.2134 64.5262L16.5649 64.6913C15.5905 63.8266 14.5638 63.0227 13.4906 62.2842C13.1307 62.0809 13.8178 61.9233 14.0253 62.0396C15.1379 62.8029 16.2026 63.6337 17.2136 64.5272C17.4616 64.7122 16.7526 64.8286 16.5651 64.6923C16.0935 64.3476 12.0074 61.1364 11.7602 61.5281C11.7302 61.576 15.0444 64.4533 15.3287 64.7068C15.5791 64.9292 14.8522 65.0077 14.6802 64.8719C13.6554 64.0648 12.728 63.115 11.6574 62.3718L12.2486 62.1676C13.8899 63.4626 15.9011 65.6256 17.9042 66.287L17.3869 66.5223C16.6598 65.682 15.8417 64.925 14.9476 64.2652C13.985 63.4876 12.9158 62.852 11.7727 62.378L10.9941 62.1175C10.4439 61.6725 10.116 61.7339 10.0103 62.3015L9.41932 62.5067C8.85674 62.0681 8.26845 61.6634 7.65758 61.295L8.24857 61.0898C9.35204 61.9085 10.8252 63.3152 12.144 63.6973L11.5909 63.8887C11.343 63.6133 11.0638 63.3677 10.759 63.157L9.99655 63.411C10.0903 63.6881 11.3734 64.1513 11.6769 64.2834C12.2663 64.5384 12.93 64.8213 11.9337 64.3514C10.8541 63.812 9.74197 63.3404 8.60372 62.9393L9.1208 62.7029C10.052 63.4386 11.0902 64.0274 12.1995 64.4491C13.5529 65.1547 14.9204 65.8366 16.2587 66.5703C16.8052 66.8701 17.3566 67.2714 17.9231 67.5203C18.1813 67.6341 19.5719 68.363 18.782 67.6843C17.6943 66.9979 16.5531 66.4003 15.3695 65.8971L15.9605 65.6919C16.7894 66.2949 17.6799 66.8447 18.5189 67.4382C18.78 67.6221 18.0801 67.7335 17.9279 67.6434C15.226 66.0534 12.3244 64.8164 9.75494 62.9958C9.47497 62.7966 10.1762 62.7312 10.273 62.7592C12.93 63.5323 15.7984 65.6298 17.9106 67.3908C18.1912 67.6236 17.4366 67.649 17.3196 67.596C14.2478 66.1317 11.4104 64.2193 8.90037 61.9215C8.73336 61.7671 9.0262 61.6707 9.13271 61.6564C9.96048 61.5433 10.9933 62.3096 11.6724 62.668C13.6075 63.673 15.453 64.8418 17.1886 66.1617C17.4643 66.3731 16.7277 66.4323 16.5977 66.3669C15.0109 65.4644 13.4875 64.4548 12.038 63.3451C10.6431 62.5111 9.34734 61.5215 8.1755 60.3954C7.9722 60.1683 8.47709 60.1103 8.60444 60.1373C11.752 60.7992 14.5816 63.231 17.1826 64.9931L16.5907 65.1985C14.9866 63.9719 13.3911 62.7557 11.8308 61.4738C10.9681 60.7647 9.55925 59.9343 9.21541 58.8139C9.14576 58.5878 9.55224 58.5792 9.68011 58.6041C12.5743 59.3534 15.2131 60.8689 17.3188 62.9912C17.5613 63.2502 16.9132 63.2572 16.8017 63.2275C13.9317 62.4831 11.2094 60.1383 8.70923 58.6219C8.33969 58.3993 9.05227 58.2851 9.24416 58.3783C12.4641 59.8399 15.4711 61.7313 18.183 64.0006C18.458 64.245 17.7104 64.2606 17.5918 64.2049C14.6422 62.8178 11.9906 60.9258 9.16548 59.3222C8.79234 59.1107 9.50699 58.9878 9.70038 59.0786C12.892 60.5322 15.8561 62.4405 18.5004 64.7443C18.7758 64.9947 18.0237 65.0001 17.9092 64.9485C16.18 64.1757 14.4769 63.3465 12.7739 62.5184C12.3938 62.3342 11.1901 61.9481 10.9721 61.4976C11.1204 61.802 12.9613 62.6322 13.2712 62.8141C14.4525 63.5123 16.5329 64.2061 17.3936 65.2492C17.8931 65.8523 15.7388 64.3494 15.5125 64.2138C14.5717 63.6702 13.5879 63.2046 12.571 62.8218C12.0748 62.6285 10.7442 61.8663 10.3046 62.016C9.57972 62.2634 10.4041 62.3666 10.7802 62.64C12.0621 63.5695 13.522 64.3183 14.8709 65.1512C15.256 65.3876 17.7668 66.9365 16.4655 66.1768C15.1642 65.417 13.8638 64.6119 12.5025 63.983L13.0944 63.7776C14.0283 64.4487 15.0803 65.1203 16.0469 65.7418C16.5087 66.0395 18.139 66.6463 18.2884 67.0398C18.1999 66.8078 17.1952 66.3059 17.0572 66.2146C16.8529 66.0811 14.9319 64.9175 15.6502 65.2771C16.4128 65.6594 17.0926 66.19 17.8426 66.5937C18.3749 66.8813 19.364 67.6269 18.274 66.3996C18.105 66.2098 16.4837 64.8999 17.3064 65.5115C18.2633 66.2245 18.8654 67.0718 20.1165 67.3967L19.5517 67.5374C19.7291 66.661 18.2742 65.7561 18.8436 66.4128C19.3459 67.0888 20.0202 67.6178 20.7962 67.9449L20.3315 68.1548C19.775 66.8394 18.7626 65.7689 17.4803 65.1399L18.1075 64.9807C18.2046 65.3565 19.3163 66.549 19.3454 66.2662C19.3721 66.0127 18.4482 65.2828 18.2665 65.1226C16.5916 63.6465 17.8599 64.9661 18.3056 65.1495L17.7408 65.2902C17.8142 64.8083 17.0916 64.19 16.8126 63.7905C16.6589 63.5694 17.3707 63.5406 17.4971 63.6704C17.9858 64.1734 18.846 65.232 19.5844 65.3808L19.1197 65.5907L18.7282 65.0242C21.2782 64.701 21.8861 64.4238 20.5519 64.1927C19.6689 63.6976 19.8185 64.79 20.7401 65.0924L20.187 65.2837C19.8332 64.7031 19.3537 64.2092 18.7838 63.8385C18.2138 63.4677 17.5679 63.2296 16.8937 63.1416L17.3584 62.9317C18.1385 63.9666 19.2728 64.6774 20.5442 64.9282C22.1338 65.0744 21.098 63.9219 20.3082 63.2749C19.9043 62.9433 16.9423 61.1784 17.1788 61.8514C17.881 62.8923 18.9287 63.6512 20.1366 63.994C20.8447 64.0871 20.9749 64.1576 20.5035 63.4361C20.0882 62.973 19.5956 62.5857 19.0477 62.2913C18.8592 62.1685 16.9406 60.993 16.809 61.1743C16.7318 61.2845 16.7644 61.1189 17.1237 61.4618C17.7481 61.9874 18.4191 62.4549 19.1283 62.8587C19.7659 63.2729 20.7158 63.809 19.1386 63.0719C18.0862 62.581 17.1095 61.9249 16.056 61.4333C14.0914 60.5167 14.7271 61.1541 15.9174 61.9579C16.292 62.2111 19.4685 64.3586 19.1697 63.2022C18.894 62.1369 13.0333 59.5387 13.0051 59.6478C12.881 60.1414 17.878 62.6886 18.4847 62.8359L18.02 63.0458C17.7626 62.3755 16.7735 61.8208 16.2395 61.4145C15.1594 60.552 14.0132 59.7759 12.8114 59.0932C11.9151 58.6115 10.231 57.7718 12.224 58.9004C13.277 59.6265 14.3961 60.2515 15.5666 60.7673L15.0495 61.0037C14.0886 60.0276 13.0547 59.1262 11.9567 58.3073C11.6851 58.0775 10.2838 56.5958 10.0432 57.265C9.82739 57.8639 12.4982 59.0526 12.3568 59.0267L11.8921 59.2367C11.6416 58.8073 11.3428 58.408 11.0016 58.0465C10.0904 56.9227 8.1134 53.356 8.97946 57.1206L8.25091 57.0456L8.40297 55.9616L9.11905 55.9872L9.53397 56.4774L9.98363 56.7225C11.2839 57.4233 11.0881 57.2421 9.39624 56.1787C9.38291 56.3388 9.36765 56.4994 9.35432 56.6595C10.1174 57.7833 11.2619 57.9919 12.7881 57.2851C12.4672 56.4882 11.9701 56.3977 11.2968 57.0136C8.8617 57.9976 12.7634 58.9565 12.6652 57.5444C12.582 56.3525 11.0064 55.8891 12.6045 57.4681C13.3252 58.1802 18.0169 62.0541 18.8009 60.0309C19.1817 59.049 15.2385 56.6034 17.2581 59.3854C17.7533 60.1346 18.3743 60.7926 19.0936 61.3303C22.2876 60.9987 23.1856 60.8755 21.7876 60.9609C21.3456 60.8748 21.289 60.9959 21.618 61.3243C21.7506 60.3071 21.4857 60.0946 20.8232 60.6868C19.9073 60.8982 19.9462 61.3244 20.9398 61.9653C22.2697 62.2535 20.8066 60.548 20.5671 60.3066C19.6264 59.5305 18.4832 59.0398 17.2726 58.8925C17.1915 59.3354 17.11 59.7785 17.0283 60.2215C17.2679 60.4097 17.5487 60.5384 17.8477 60.5972C18.1467 60.6559 18.4553 60.6429 18.7483 60.5592L18.0434 59.6218C17.4429 58.8922 13.994 55.067 13.0647 56.043C12.9035 56.2116 12.193 56.0811 12.4294 55.8336L12.4302 55.8416Z" fill="#4CB050"/>
<path d="M9.69663 58.6399C9.44033 59.0635 9.71298 59.5999 9.93578 59.9826C10.1419 60.4099 10.4227 60.7969 10.7651 61.1253L10.1263 61.2348C10.0504 60.6853 9.82952 60.166 9.48648 59.7302C9.13882 59.137 8.63355 58.6519 8.02679 58.3286C7.74674 58.1114 7.75595 58.2461 8.05441 58.7327C8.14932 58.9038 8.24909 59.0737 8.35576 59.2379C8.5443 59.5236 8.75834 59.7916 8.99526 60.0386C9.16847 60.2236 9.35706 60.3936 9.55902 60.5468C9.60087 60.7947 9.59257 60.772 9.53243 60.4759C9.51297 60.4108 9.48574 60.3481 9.45137 60.2894C9.1327 59.7259 8.69756 59.2368 8.17495 58.8548C7.89772 58.658 7.60412 58.4855 7.2974 58.3389C7.1555 58.2861 7.0219 58.2133 6.9006 58.1227C7.04608 58.0993 7.13918 58.1425 7.17816 58.2536C7.46736 58.5727 7.68107 58.9205 8.0049 59.2163C8.39849 59.5991 8.84404 59.9247 9.32839 60.1834L8.96494 60.3073C9.21832 59.9512 8.49969 59.3545 8.28396 59.1714C8.16403 59.0697 7.44479 58.4127 7.32899 58.4445C6.99186 58.5357 7.80293 59.3327 7.9102 59.4239C8.27265 59.7589 8.65988 60.0662 9.06861 60.3429L8.44134 60.5021C8.18603 60.1699 7.90057 59.862 7.58859 59.5823C7.49294 59.4792 7.21438 59.4152 7.463 59.3629C7.67249 59.3146 7.74477 59.5699 7.88135 59.7169C8.1552 60.0175 8.47153 60.2764 8.82029 60.4854C9.02665 60.5968 9.02877 60.6949 8.94331 60.4714C8.83174 60.2693 8.68079 60.0916 8.49938 59.9488C8.37 59.833 7.61641 59.1561 7.50728 59.208C7.14693 59.3764 8.74471 60.8559 9.03847 61.0169L8.4112 61.1761C8.2476 60.6988 7.92622 60.2916 7.50009 60.0215L8.08525 60.0044C7.82691 60.219 8.81574 61.5548 8.94746 61.783C9.10931 62.0618 8.36711 61.9765 8.26292 61.9031C7.95554 61.652 7.6779 61.3666 7.43537 61.0525L8.13137 60.9821C8.18145 61.0967 8.23252 61.2112 8.2826 61.3259C8.4245 61.5271 7.70958 61.609 7.56176 61.3999C7.45027 61.2788 7.38809 61.1204 7.38739 60.9558C7.34307 60.7104 7.98663 60.7774 8.08363 60.8864C8.32583 61.2005 8.60343 61.4856 8.91095 61.736L8.22642 61.8561C7.99898 61.4622 6.93519 60.2196 7.44843 59.7932C7.53639 59.7407 7.63634 59.7115 7.73878 59.7085C7.84121 59.7055 7.94272 59.7288 8.03359 59.7762C8.54726 60.071 8.93696 60.5417 9.1308 61.1013C9.21095 61.3907 8.63538 61.3337 8.50255 61.2607C7.99622 60.9835 6.30455 59.6663 6.77212 58.9754C7.28608 58.2143 8.56528 59.2963 8.95941 59.6209C9.35355 59.9456 10.3251 61.1355 9.16919 61.112C8.6609 60.998 8.18518 60.7699 7.77803 60.445C7.37088 60.1201 7.04296 59.7069 6.81907 59.2366C6.80902 59.2115 6.80781 59.1837 6.81564 59.1578C6.82348 59.132 6.83987 59.1095 6.86215 59.0942C7.64303 58.4757 8.80943 59.8649 9.16386 60.4266C9.32293 60.6711 8.63571 60.646 8.53662 60.5858C7.80191 60.1708 7.15975 59.6101 6.64958 58.938C6.31531 58.4148 6.48841 57.991 7.12844 57.9849C7.87497 57.9778 10.262 59.6086 9.68054 60.4284C9.63388 60.4758 9.57681 60.5116 9.51389 60.5331C9.45098 60.5545 9.38394 60.5611 9.31806 60.5521C8.6943 60.4909 5.45692 58.0752 6.74226 57.7436C7.07565 57.6584 7.29976 57.8201 7.57965 57.97C8.10225 58.2043 8.59125 58.5073 9.03362 58.871C9.3561 59.1609 10.7416 60.401 10.2603 60.9883C9.45169 61.9755 6.4639 58.6494 7.30413 57.9145C7.87868 57.4114 8.88319 58.2684 9.27036 58.6029C10.1265 59.2495 10.7 60.2017 10.8713 61.2609C10.8699 61.4993 10.3547 61.4458 10.2326 61.3704C9.78038 60.9956 9.41981 60.5225 9.17837 59.9871C9.02105 59.7796 8.92043 59.5348 8.8864 59.2767C8.85236 59.0186 8.88608 58.7561 8.98425 58.515C9.11352 58.3015 9.83767 58.4062 9.69738 58.6387L9.69663 58.6399Z" fill="#4CB050"/>
<path d="M17.5669 67.1024C15.6163 69.5222 13.3109 72.108 9.9919 70.2726C8.48819 69.4405 8.35566 67.5017 8.28979 65.9538C8.23915 64.7432 8.02099 62.0379 9.00482 61.1293C9.10142 61.067 9.21486 61.0357 9.32977 61.0398C9.44469 61.044 9.55557 61.0832 9.64747 61.1523L9.71772 61.2388C9.92994 61.509 9.21481 61.5899 9.06923 61.4039L8.99901 61.3175L9.64068 61.3407C9.1653 61.7799 9.17379 63.0659 9.10609 63.6573C8.97071 64.7677 8.9694 65.8902 9.10214 67.0009C9.15684 67.6717 9.31538 68.33 9.57212 68.9522C9.73741 69.4221 10.0801 69.8087 10.5268 70.0291L14.1031 69.9608C15.244 69.3813 16.0711 67.9537 16.8567 66.9779C17.0165 66.7809 17.7271 66.9073 17.5698 67.1017L17.5669 67.1024Z" fill="#4CB050"/>
<path d="M16.2588 2.34802L16.3226 2.30867C16.4936 2.20455 16.8809 2.16643 17.0003 2.37696C17.3729 3.09029 17.6657 3.84256 17.8733 4.62009C17.9699 4.93646 18.1838 5.32942 17.955 5.62753C17.8704 5.70188 17.7646 5.74768 17.6525 5.75846C17.5404 5.76923 17.4277 5.74443 17.3305 5.68756C16.7262 5.11953 16.284 4.40085 16.0493 3.60539C15.7914 3.01733 15.1122 1.9159 15.2995 1.24662C15.3656 1.01276 15.8549 1.02087 15.9955 1.17623C16.4855 1.82105 16.8723 2.53814 17.142 3.3018C17.5973 4.13114 18.0043 4.98599 18.3612 5.86215C18.4546 6.15978 17.8002 6.09944 17.6767 5.98222C17.3428 5.55025 17.0788 5.06848 16.8945 4.55458C16.4823 3.75172 16.2031 2.89356 15.811 2.08402C15.6886 1.83414 16.4114 1.79967 16.5318 2.00998C16.9841 2.8056 17.3938 3.62466 17.7592 4.46374C17.8824 4.74833 17.1649 4.70358 17.0384 4.53779C16.6616 3.99152 16.3874 3.38114 16.2295 2.73659C16.0512 2.39105 15.983 1.99925 16.0339 1.6138C16.089 1.43893 16.4739 1.49271 16.5833 1.52186C17.5583 1.78425 18.2224 3.80259 17.9717 4.69074C17.8966 4.95645 17.1665 4.88384 17.2279 4.66542C17.3999 4.04996 16.9573 2.03076 16.1955 1.82486L16.7449 1.73292C16.6356 2.07734 16.9767 2.77241 17.0852 3.1004C17.2322 3.5871 17.4592 4.04594 17.7569 4.45811L17.0361 4.53216C16.6711 3.69287 16.2613 2.87378 15.8086 2.07839L16.5294 2.00434C16.8808 2.72169 17.1246 3.4844 17.4752 4.20294C17.6747 4.77905 17.9609 5.32139 18.3238 5.81128L17.6393 5.93133C17.3288 5.15059 16.9655 4.39198 16.5516 3.66079C16.2621 2.83223 15.8557 2.04931 15.3447 1.33572L16.0407 1.26536C15.8937 1.78473 16.4065 2.68547 16.6113 3.16365C16.8366 4.01311 17.2658 4.79476 17.8616 5.44075L17.2373 5.50173C17.4497 5.22588 17.0776 4.43637 16.9887 4.14488C16.8142 3.55468 16.5751 2.98554 16.2757 2.44779L16.9534 2.51608L16.8897 2.55545C16.6937 2.67562 15.9898 2.50763 16.2542 2.346L16.2588 2.34802Z" fill="#4CB050"/>
<path d="M15.6303 0.932379C16.3264 0.733688 16.8297 1.34004 17.1341 1.89376C17.4678 2.55643 17.7298 3.25286 17.9154 3.97122C18.0906 4.39596 18.158 4.85742 18.1116 5.31451C18.0465 5.5348 17.7155 5.50141 17.5468 5.45518C16.5126 5.1808 13.6874 0.9232 15.4437 0.884135C16.1637 0.868777 16.6295 1.69517 16.949 2.22588C17.4485 3.05579 18.2251 4.32565 18.1079 5.32051C18.0837 5.53136 17.6773 5.52256 17.5431 5.46119C16.7465 5.1227 16.3295 3.7298 16.0101 2.98659C15.8074 2.51306 15.2425 1.43964 16.0067 1.19342C17.4711 0.721903 18.2436 4.31215 18.494 5.03228C18.5883 5.303 17.8541 5.33703 17.7741 5.10611C17.4649 3.93601 16.9986 2.81323 16.3878 1.76843C16.0437 1.27414 16.433 2.11103 16.4894 2.29301C16.5958 2.6078 16.7233 2.91506 16.8711 3.21272C17.0361 3.56768 17.2135 3.91366 17.3923 4.26135C17.5041 4.47878 17.6907 5.05148 17.9273 5.15182L17.3627 5.29345C17.4904 4.20174 16.5085 2.58931 15.8416 1.72313C15.7992 1.66827 15.6614 1.4363 15.5803 1.41397C15.4705 1.38287 15.5836 1.4594 15.5971 1.61538C15.6543 2.00558 15.7813 2.3823 15.9719 2.72757C16.3441 3.48628 17.0514 4.90964 17.9308 5.14896L17.3659 5.28964C17.4043 4.55216 17.2385 3.81837 16.8866 3.16909C16.7708 2.80257 16.6349 2.44267 16.4797 2.091C16.4397 2.01096 15.9593 1.27309 15.9932 1.26424C15.7294 1.33952 15.1627 1.06293 15.6286 0.929691L15.6303 0.932379Z" fill="#4CB050"/>
<path d="M38.7208 5.90119L38.7916 6.05214L38.0747 6.02777C38.6589 4.70684 39.1479 3.34584 39.5381 1.9552C39.7269 1.4395 39.9515 0.238222 40.6344 0.151362C40.7241 0.139886 41.1281 0.164641 41.0995 0.351877C40.7416 2.54459 39.6177 4.66475 39.4695 6.886L38.741 6.81096C39.045 5.86945 39.1994 4.88448 39.5106 3.94333C39.8367 2.95977 40.2741 2.02238 40.5822 1.02758L41.2953 1.15131C40.9158 2.21905 40.7607 3.32118 40.4891 4.41634C40.2526 5.36999 39.9608 6.29331 39.8134 7.26847L39.0848 7.19343C39.6776 5.51098 40.432 3.92872 41.0949 2.27932C41.1834 2.05362 41.9072 2.12567 41.808 2.40308C41.2929 3.84388 40.5122 5.15203 40.055 6.62565C39.9911 6.83336 39.2864 6.78155 39.3264 6.55062C39.5072 5.55545 39.6464 4.56679 39.854 3.57671C39.9206 3.26063 40.3527 1.94058 40.0273 1.70473L40.6688 1.72702C39.6386 2.88964 39.0769 4.39342 39.0926 5.94672L38.3498 5.92117C38.5395 4.47546 38.8987 3.05319 39.091 1.62329L39.8195 1.69833C39.285 3.26257 38.887 4.87016 38.6299 6.50309C38.5885 6.7682 37.8473 6.71863 37.8861 6.47773C38.15 4.81212 38.5582 3.17261 39.1061 1.5777C39.1765 1.3757 39.8671 1.41536 39.8347 1.65274C39.6424 3.08264 39.2831 4.5049 39.0935 5.95062C39.0594 6.21198 38.3807 6.18395 38.3507 5.92507C38.3379 4.29743 38.9395 2.72486 40.0352 1.52127C40.1857 1.36851 40.5283 1.43412 40.6777 1.54331C41.0873 1.84181 40.7631 2.80237 40.6861 3.19783C40.4651 4.32545 40.2708 5.44894 40.0713 6.58082L39.3428 6.50579C39.8 5.03216 40.5815 3.7228 41.0956 2.28223L41.8087 2.40599C41.1455 4.05443 40.3913 5.63765 39.7986 7.32011C39.7273 7.52234 39.0352 7.48095 39.0701 7.24507C39.2388 6.12233 39.6011 5.05549 39.8489 3.95043C40.0335 2.96316 40.2783 1.9881 40.5819 1.03072C40.6616 0.80705 41.3834 0.870325 41.295 1.15448C40.9879 2.14906 40.5491 3.08472 40.2235 4.07023C39.9136 5.0131 39.7576 5.99538 39.4538 6.93787C39.3882 7.14287 38.709 7.10366 38.7253 6.86283C38.8752 4.64938 39.9999 2.51978 40.3561 0.328489L40.8212 0.529034C40.7524 0.537735 40.1376 2.40487 40.0423 2.68962C39.7223 3.8792 39.3037 5.04004 38.7909 6.16008C38.6877 6.35324 38.1651 6.33021 38.074 6.13572L38.0032 5.98477C37.8874 5.73646 38.6173 5.68392 38.7241 5.91072L38.7208 5.90119Z" fill="#4CB050"/>
<path d="M56.0285 14.3034C55.3771 14.5933 54.7588 14.9516 54.1109 15.248C53.3696 15.4521 52.6488 15.7243 51.9576 16.0612C51.8246 16.1606 51.4538 16.0749 51.7909 16.4548C52.0289 16.7211 53.5997 15.9233 53.9182 15.7337C54.5878 15.4095 55.1887 14.9596 55.6885 14.4086L56.3029 14.6115C55.6158 14.9293 54.9583 15.2822 54.2915 15.6394C53.6124 15.872 52.9603 16.1771 52.3464 16.5492L52.1339 16.2689C53.3766 16.4417 55.0997 15.0145 56.0094 14.2914L56.5854 14.5371C55.8355 14.9032 55.0949 15.2917 54.3271 15.6199C53.9885 15.7668 53.6457 15.9137 53.3041 16.0521C53.3265 16.0469 52.5346 16.3108 52.8662 16.2937C53.6046 16.2557 54.3636 15.596 55.0722 15.3801C55.1893 15.3449 55.7348 15.3739 55.6105 15.6089C55.4073 15.9081 55.1197 16.1403 54.7843 16.2758C54.0219 16.7225 53.2347 17.1257 52.4265 17.4832L52.2736 17.1675C52.4894 17.1274 52.6989 17.059 52.8968 16.964C53.4666 16.7678 54.0236 16.5364 54.5647 16.2711C55.2254 15.9237 55.912 15.628 56.6183 15.3865C56.7393 15.3503 57.3764 15.4341 57.1184 15.659C56.426 16.1663 55.6666 16.5751 54.8618 16.8737C54.3721 17.0997 53.8798 17.3057 53.3783 17.5026C53.04 17.5854 52.7187 17.7262 52.4286 17.9189C52.2677 18.111 51.5561 17.9807 51.7155 17.7951C52.1825 17.4366 52.7221 17.1842 53.2966 17.0555C54.4333 16.6829 55.5074 16.1411 56.4828 15.4485L56.9829 15.721C55.8308 16.065 54.8081 16.7476 53.6816 17.1585C53.184 17.4165 52.6282 17.5417 52.068 17.5218C51.9138 17.4938 51.6562 17.3162 51.9151 17.2061C52.5081 16.9484 53.0872 16.6599 53.6501 16.3417C54.0358 16.1274 54.6866 15.8971 54.9024 15.4891L55.4416 15.7176C54.7111 15.9407 52.9869 17.2388 52.1886 16.6483C51.8372 16.3887 51.9879 16.1702 52.3059 15.9603C52.7922 15.7144 53.2973 15.5075 53.8164 15.3416C54.5824 15.0098 55.3248 14.6249 56.0747 14.2588C56.2196 14.1885 56.9239 14.2875 56.6508 14.5046C55.4062 15.4929 53.6133 16.8581 51.9288 16.621C51.8091 16.6045 51.5524 16.4842 51.7163 16.3406C52.2513 15.992 52.8323 15.7196 53.4426 15.5316C54.2387 15.1569 54.995 14.699 55.7933 14.329C55.8962 14.2816 56.5782 14.2883 56.4077 14.5319C55.5744 15.4786 54.5058 16.1883 53.3101 16.5895C52.8713 16.7859 52.391 16.8722 51.9112 16.8408C51.4314 16.8093 50.9665 16.6612 50.557 16.4092C50.5211 16.3826 50.49 16.3056 50.5237 16.265C51.0512 15.8545 51.6721 15.5811 52.331 15.469C53.4381 15.0677 54.4437 14.4979 55.515 14.0217C55.728 13.9263 56.4085 14.1356 56.0315 14.3027L56.0285 14.3034Z" fill="#4CB050"/>
<path d="M61.9529 29.6562C62.2757 29.5639 62.6093 29.5141 62.945 29.5082C63.0149 29.5044 63.5534 29.5607 63.3945 29.7524C62.943 30.2308 62.39 30.6018 61.7763 30.8383C60.5448 31.4387 59.2962 32.0184 58.1186 32.7192C57.9072 32.8332 57.7031 32.9602 57.5075 33.0995C57.3666 33.3249 57.4229 33.3852 57.6765 33.2801C58.0561 33.4439 59.2009 32.9528 59.6252 32.8302C60.999 32.5439 62.3294 32.0794 63.5828 31.4485L63.9931 31.7366C62.9582 31.9427 61.9413 32.2303 60.9517 32.5968C60.0182 32.8016 59.1228 33.1524 58.2985 33.6363L58.086 33.3559C58.9061 33.494 60.1496 32.4166 60.8219 32.0213C61.6353 31.6043 62.4043 31.106 63.1171 30.5338L63.6932 30.7795C61.9099 31.6172 59.9916 32.1678 58.1408 32.8332L57.7001 32.5244C59.6411 32.0055 61.1288 30.7589 62.9305 29.9919C63.0547 29.9386 63.668 29.9192 63.5446 30.1939C63.0751 30.8693 62.4074 31.3821 61.6338 31.6614C60.21 32.2481 58.8538 32.9868 57.5887 33.8648C57.4142 34.0201 56.7027 33.8764 56.9534 33.6554C57.8279 33.0098 58.7788 32.4748 59.7846 32.0627C60.7035 31.597 62.381 31.0794 62.833 30.0719L63.4471 30.2739C61.6017 31.0602 60.0493 32.3289 58.0639 32.8602C57.8821 32.9083 57.2445 32.6891 57.6232 32.5514C59.4654 31.889 61.4052 31.3293 63.1746 30.498C63.3162 30.4314 64.0157 30.5008 63.7506 30.7437C62.7366 31.5381 61.6422 32.2242 60.4854 32.7907C59.7514 33.3962 58.8259 33.7208 57.8744 33.7065C57.768 33.69 57.4821 33.5631 57.6617 33.4251C58.3937 32.9708 59.1944 32.6379 60.0328 32.4395C61.2612 31.9858 62.523 31.6279 63.8067 31.3691C63.9157 31.3522 64.4749 31.4981 64.217 31.6572C62.7386 32.4082 61.1659 32.957 59.5412 33.2888C58.6818 33.5273 57.3549 33.9989 56.5012 33.5196C56.447 33.489 56.3529 33.4061 56.4114 33.3351C57.0442 32.7082 57.7932 32.2107 58.6165 31.8705C59.8247 31.2313 61.7885 30.6959 62.6796 29.6209L63.1292 29.866L62.3194 29.9811C62.0553 30.0421 61.4859 29.763 61.955 29.6475L61.9529 29.6562Z" fill="#4CB050"/>
<path d="M1.99902 9.29929C2.90997 9.94279 3.68783 10.7565 4.28973 11.6954C5.02253 12.4245 5.58669 13.3053 5.94254 14.2758C5.96234 14.3615 5.80427 14.4103 5.75323 14.4293C4.80008 14.7017 3.90669 13.6815 3.27913 13.1192C2.29281 12.2344 0.748684 10.6451 0.545133 9.27884C0.523533 9.13193 0.848245 9.09801 0.924023 9.10617C1.87586 9.2015 2.69003 10.4432 3.25217 11.0954C3.79504 11.7265 5.35727 13.1454 5.35263 14.0589C5.35145 14.2449 4.98404 14.2405 4.87693 14.2211C3.92317 13.903 3.11653 13.2509 2.60568 12.3849C2.10321 11.7199 0.841984 10.3556 0.961451 9.46392C0.990513 9.25195 1.38913 9.26257 1.52727 9.32304C2.36551 9.76645 3.09112 10.3958 3.64853 11.163C4.32545 12.1522 5.10157 13.0696 5.96483 13.9011L5.31637 14.0662C4.63213 13.4172 4.04538 12.6725 3.57439 11.8554C3.00109 11.0722 2.57074 10.1939 2.30317 9.2609C2.25765 9.00149 2.90008 9.10361 2.9994 9.19152C3.67271 9.86547 4.28241 10.6001 4.82075 11.386C5.36879 11.9612 5.85557 12.5917 6.27322 13.2675C6.39744 13.5344 5.75397 13.49 5.64595 13.4267C4.36433 12.6275 3.5061 10.8572 2.74873 9.61268C2.61139 9.38678 3.33401 9.3339 3.46955 9.53866C3.91273 10.2091 4.40425 10.8623 4.8314 11.5344C5.02031 11.8326 5.20383 12.1207 4.87023 12.3517C4.11925 12.873 2.6315 11.2788 2.19217 10.905C1.93678 10.6879 2.63618 10.6055 2.78339 10.7008C3.9306 11.3993 4.85022 12.416 5.43055 13.6273C5.5095 13.8893 5.00874 13.854 4.87742 13.8187C4.00142 13.5806 3.51362 12.7747 2.79177 12.2752C2.44704 12.0356 3.12767 11.8898 3.32646 12.0307C3.94696 12.4601 4.53362 13.312 5.26405 13.5108L4.71092 13.7021C4.16603 12.5701 3.31264 11.6148 2.2489 10.9463L2.84088 10.7409C3.16531 11.017 3.50389 11.2744 3.83753 11.5371C4.18983 11.8139 4.50468 12.2041 4.11202 11.6102C3.66613 10.9414 3.18995 10.2836 2.75013 9.61442L3.47098 9.54036C3.82605 10.1796 4.21356 10.8002 4.63201 11.3998C5.05133 12.0726 5.5745 12.6747 6.18207 13.1839L5.55457 13.3421C5.0791 12.5881 4.53209 11.8816 3.92114 11.2325C3.45338 10.563 2.92806 9.93566 2.35114 9.35759L3.04737 9.28819C3.32331 10.1827 3.74536 11.0254 4.29641 11.7821C4.74796 12.5656 5.31068 13.2796 5.96702 13.9017C6.22713 14.1392 5.48066 14.1822 5.31853 14.0668C3.73519 12.9431 3.04681 10.406 1.14181 9.63165L1.70664 9.49098C1.6262 10.0894 2.41921 11.0394 2.74095 11.5039C3.27356 12.2728 4.07429 13.6828 5.08602 13.8731L4.61053 14.0362C4.61413 13.2605 3.31746 12.1118 2.88366 11.5931C2.51493 11.1517 2.13032 10.7305 1.73348 10.3141C1.57449 10.1455 1.11772 9.50072 0.913168 9.47713L1.29108 9.30469C1.6089 10.2785 2.15391 11.1627 2.88107 11.8841C3.45589 12.702 4.20054 13.386 5.06412 13.8895C5.33817 14.1163 5.31185 14.0481 4.98512 13.685C4.862 13.4686 4.72543 13.2602 4.57624 13.061C4.24363 12.5938 3.87625 12.145 3.51486 11.6999C2.97248 10.8604 2.2785 10.1293 1.46843 9.54394C1.10211 9.35756 1.79791 9.19281 2.00314 9.29938L1.99902 9.29929Z" fill="#4CB050"/>
<path d="M18.203 55.6944C19.1959 52.3415 21.2969 49.4246 24.1626 47.4207C27.0349 45.4234 30.0084 43.4776 32.0895 40.5782C33.0279 39.2726 34.3634 36.9579 34.0467 35.275C34.2091 34.1736 33.5728 33.64 32.1377 33.6744C30.9379 32.4605 30.0319 32.54 29.4197 33.9129C28.9101 34.6466 28.5775 35.4886 28.4481 36.3725C28.4951 38.7365 29.7616 35.9892 30.071 35.3513C30.5008 34.5576 30.7473 33.6776 30.7922 32.776C30.8106 30.9131 29.3649 28.0253 26.8001 30.6434C26.3593 31.2594 26.0319 31.9491 25.8335 32.6801C25.6082 33.2688 24.8789 34.7334 25.1204 35.3704C25.3904 36.0953 25.5303 35.4523 25.818 34.9425C26.0689 34.3851 26.1837 33.7761 26.1532 33.1656C26.1227 32.5551 25.9477 31.9606 25.6426 31.431C25.3555 30.8269 24.9631 30.2787 24.4838 29.8122C23.6729 28.8041 22.9094 28.7409 22.1934 29.6225C18.6695 32.0782 21.4413 36.5226 21.6582 39.7515C21.8545 42.74 20.2495 45.8435 19.0185 48.4554C17.7592 51.1299 16.4801 53.7956 15.1811 56.4526C15.0776 56.6664 14.3648 56.6062 14.468 56.3288L14.5238 56.1795C14.6065 55.9551 15.3395 56.0271 15.237 56.3032L15.1821 56.4524L14.469 56.3286C16.4871 52.1783 18.7882 48.0221 20.2426 43.6263C20.7086 42.3793 20.9367 41.056 20.9152 39.725C20.7001 38.566 20.4188 37.4204 20.0727 36.2936C19.6567 34.1451 19.3768 31.2919 20.9976 29.484C22.6184 27.676 24.9351 28.9978 26.0331 30.7486C26.5363 31.4477 26.8288 32.2763 26.8761 33.1364C26.9233 33.9964 26.7233 34.852 26.2997 35.6021C25.9659 36.0897 25.4967 36.7111 24.8101 36.4355C22.8179 35.6259 26.2216 29.5156 27.9454 29.1228C30.9892 28.4283 31.9562 32.3277 31.205 34.5107C30.9695 35.1931 28.4725 39.883 27.7214 37.0298C27.0432 34.4523 30.2889 31.125 32.8619 31.9431C37.3343 33.3737 33.4417 40.1449 31.5776 42.1393C29.5154 44.2011 27.2427 46.0409 24.7966 47.6284C21.968 49.6153 19.8952 52.5012 18.9157 55.8162C18.8457 56.0376 18.1135 55.9778 18.2026 55.6924L18.203 55.6944Z" fill="#4CB050"/>
</g>
<defs>
<clipPath id="clip0_1281_78407">
<rect width="63.95" height="71.648" fill="white" transform="translate(0.512939)"/>
</clipPath>
</defs>
</svg>
