<svg width="72" height="94" viewBox="0 0 72 94" fill="none" xmlns="http://www.w3.org/2000/svg">
<g clip-path="url(#clip0_1281_78433)">
<path d="M39.5031 84.391C38.3922 79.4403 35.8892 74.9103 32.2891 71.335C28.5621 67.443 24.238 64.335 20.958 60C14.191 51.05 10.324 38.769 14.807 28C19.284 17.243 30.928 9.6 42.682 11.387C55.431 13.322 64.5881 23.541 68.2381 35.373C70.4114 42.3448 70.3006 49.8285 67.922 56.733C66.85 59.72 65.3981 62.517 64.6901 65.633C63.9571 68.863 64.272 72.054 64.526 75.321C64.569 75.885 66.3151 75.521 66.2641 74.856C65.9761 71.141 65.7481 67.587 66.8011 63.964C67.7391 60.739 69.3771 57.772 70.2641 54.537C72.0237 48.0975 71.9242 41.2913 69.9771 34.906C66.3331 23.038 57.3171 13.047 44.7381 10.614C34.9191 8.714 24.786 12.735 18.201 20.105C10.034 29.245 9.50106 41.175 14.3011 52.096C17.0256 58.1533 21.0731 63.5229 26.146 67.81C31.566 72.495 36.2581 77.634 37.7691 84.859C37.8941 85.459 39.638 85.023 39.507 84.394L39.5031 84.391Z" fill="#4CB050"/>
<path d="M38.6619 84.6727C48.2479 83.7825 57.4732 80.5732 65.5419 75.3217C66.5249 74.6827 65.0219 74.4437 64.4639 74.8057C56.7929 79.8074 48.0175 82.8624 38.8989 83.7057C38.0489 83.7867 37.4549 84.7807 38.6619 84.6677V84.6727Z" fill="#4CB050"/>
<path d="M41.3059 87.9037C49.9498 86.7376 58.3638 84.2534 66.2549 80.5377C68.1439 79.6467 66.943 78.6208 65.335 78.9548L64.944 79.0357C62.819 79.4777 63.3079 81.2117 65.4089 80.7737L65.7999 80.6927L64.881 79.1097C57.5781 82.5689 49.7872 84.8859 41.7809 85.9797C40.1069 86.2077 38.8969 88.2317 41.3059 87.9037Z" fill="#4CB050"/>
<path d="M43.2389 90.5888C51.3029 89.9382 59.1767 87.7998 66.4619 84.2818C68.6319 83.2348 66.6429 82.1038 65.0889 82.8538C58.3866 86.1008 51.1386 88.0718 43.715 88.6658C42.008 88.8048 40.8269 90.7858 43.2399 90.5898L43.2389 90.5888Z" fill="#4CB050"/>
<path d="M48.2249 93.8378C51.9009 94.1018 55.4429 92.9548 58.9679 92.0578C61.9066 91.4271 64.6643 90.1388 67.0339 88.2898C68.5689 87.0418 65.1219 87.0078 64.2479 87.7188C62.1839 89.3968 60.0078 89.9398 57.4948 90.5748C54.8848 91.2358 52.3009 92.0618 49.5779 91.8668C48.2459 91.7668 45.8869 93.6668 48.2259 93.8368L48.2249 93.8378Z" fill="#4CB050"/>
<path d="M44.88 82.9607C44.7441 77.5278 43.5022 72.1796 41.2301 67.2427C39.6391 63.8277 37.2831 58.4697 33.2691 57.5757C32.8171 57.4757 32.041 57.6757 31.869 58.1567C30.753 61.2677 33.508 63.3317 36.411 63.2947C37.8794 63.2322 39.3088 62.8038 40.5694 62.0483C41.8299 61.2927 42.8817 60.2342 43.6291 58.9687C45.3091 56.1617 45.4911 51.6307 43.6641 48.8187C42.8691 47.5957 40.5701 46.6877 39.8841 48.5867C38.8271 51.5157 43.3461 54.8737 45.6311 55.5147C46.9638 55.8509 48.3552 55.8811 49.7012 55.6029C51.0472 55.3248 52.3128 54.7456 53.4031 53.9087C54.9251 52.7537 58.1161 48.6777 55.0371 47.3397C52.8851 46.4047 51.4031 48.8787 50.8931 50.5307C49.5181 54.9847 50.5291 60.8507 51.3451 65.3257C52.108 70.2186 54.1363 74.8272 57.229 78.6947C57.611 79.1527 59.279 78.5377 58.843 78.0147C55.716 74.0735 53.6982 69.3688 52.9981 64.3867C52.6751 62.5047 51.3431 47.9587 53.8841 48.9327C55.5991 49.5907 53.5621 52.2327 52.7401 53.0137C51.7863 53.9352 50.5656 54.5318 49.2525 54.7184C47.9394 54.905 46.6009 54.672 45.4281 54.0527C43.9843 53.2829 42.827 52.0681 42.1281 50.5887C41.9611 50.2297 40.9371 47.9017 41.9981 49.5817C42.6571 50.7845 43.0569 52.1119 43.1718 53.4786C43.2867 54.8452 43.114 56.2208 42.6651 57.5167C42.3512 58.4822 41.8405 59.3722 41.1653 60.1304C40.4901 60.8886 39.665 61.4985 38.7421 61.9217C35.6421 63.1067 32.4891 61.0487 33.6051 57.9357L32.2051 58.5167C34.6501 59.0607 36.1741 61.8317 37.3831 63.7917C38.6952 65.9202 39.7961 68.1719 40.6701 70.5147C42.1945 74.6532 43.0297 79.0138 43.1421 83.4227C43.1591 83.9697 44.9 83.6277 44.88 82.9567V82.9607Z" fill="#4CB050"/>
<path d="M41.3999 16.931C45.5599 17.071 49.7609 18.02 53.0829 20.67C54.2905 21.6247 55.3342 22.7701 56.1728 24.061C56.6788 24.851 57.6499 26.074 56.9809 26.868C56.3279 27.642 55.5399 26.487 54.8529 25.986C51.601 23.5448 47.82 21.9035 43.8159 21.195C42.6609 20.986 40.8159 20.81 39.9159 19.995L39.1869 18.101C39.6421 17.597 40.2379 17.2409 40.8973 17.0785C41.5568 16.9161 42.2498 16.955 42.8869 17.19C43.3499 17.295 44.5869 16.59 43.7739 16.404C42.1509 16.034 40.2039 15.717 38.7739 16.838C38.4786 17.0434 38.2341 17.3135 38.0591 17.6277C37.884 17.9419 37.7829 18.292 37.7637 18.6511C37.7444 19.0103 37.8073 19.3692 37.9477 19.7003C38.0881 20.0315 38.3023 20.3262 38.5738 20.562C40.4658 22.462 44.5139 22.162 46.9359 23.03C50.0919 24.157 52.3089 26.291 55.1839 27.822C56.1429 28.332 57.5928 28.593 58.4588 27.661C59.6458 26.38 58.0509 24.261 57.2589 23.121C53.7989 18.128 47.7699 16.309 41.9669 16.114C41.4169 16.095 40.4279 16.903 41.4029 16.935L41.3999 16.931Z" fill="#4CB050"/>
<path d="M60.8809 34.2887C61.5521 34.2205 62.2275 34.37 62.8073 34.715C63.3871 35.06 63.8406 35.5822 64.101 36.2047C64.317 36.6047 65.3889 39.0157 64.8229 39.3977C64.3659 39.7067 62.7689 37.9847 62.4939 37.6507C62.0189 37.0737 60.4619 34.8227 61.4649 34.0647L60.7859 34.3467L61.1039 34.3037C61.8039 34.2097 62.304 33.3667 61.304 33.5037C59.104 33.8037 59.6509 35.8477 60.5109 37.3037C61.3339 38.6927 63.2429 40.7236 65.0659 40.2526C66.9859 39.7526 66.311 37.4317 65.71 36.1207C65.3608 35.2153 64.7088 34.4588 63.8649 33.9797C63.021 33.5006 62.0374 33.3285 61.081 33.4927C60.401 33.6217 59.8859 34.4837 60.8809 34.2927V34.2887Z" fill="#4CB050"/>
<path d="M7.44596 30.5977C7.03396 30.9397 4.80694 29.5437 4.47294 29.3457C3.50586 28.7606 2.6032 28.0751 1.77994 27.3007C1.40694 26.9567 0.0449725 27.5067 0.434972 27.8677C1.88185 29.2382 3.56948 30.3295 5.41294 31.0867C5.91443 31.3554 6.4825 31.4746 7.04972 31.4301C7.61694 31.3856 8.1595 31.1793 8.61295 30.8357C9.24895 30.3077 7.81294 30.2967 7.45194 30.5987L7.44596 30.5977Z" fill="#4CB050"/>
<path d="M24.034 9.19398L23.8399 9.30298L24.8659 9.16797C24.0129 8.88997 23.4559 6.70597 23.1249 5.91797C22.8039 5.15497 21.6939 3.37698 22.0249 2.57698L21.019 3.07698L21.1949 3.07097C21.7319 3.05297 22.729 2.21698 21.758 2.24998L21.5829 2.25598C21.2219 2.26798 20.7319 2.38398 20.5769 2.75598C20.2699 3.49498 20.9299 4.47998 21.2129 5.17998C21.6376 6.23131 22.0833 7.27464 22.55 8.30997C23.062 9.44697 23.6149 10.368 24.9329 9.61998C25.7799 9.13898 24.5079 8.91998 24.0329 9.19098L24.034 9.19398Z" fill="#4CB050"/>
<path d="M45.213 6.41987L45.5801 3.26287L45.737 1.90987C45.7391 1.45648 45.7873 1.00449 45.881 0.560872L44.628 0.724866L44.6791 0.804868C44.7531 0.637868 44.828 0.471868 44.902 0.304868L44.8451 0.339872C44.0121 0.846872 45.275 1.05487 45.745 0.769872L45.802 0.734868C45.985 0.623868 46.159 0.444868 46.025 0.234868L45.974 0.154867C45.742 -0.208133 44.949 0.142868 44.721 0.318868C44.147 0.762868 44.286 2.12687 44.212 2.76387L43.76 6.59987C43.694 7.17287 45.151 6.90987 45.208 6.41887L45.213 6.41987Z" fill="#4CB050"/>
<path d="M64.99 16.9397L64.9241 16.9237C64.6241 16.8497 63.963 16.9817 63.807 17.3017C63.707 17.5117 63.694 17.5757 63.807 17.7727C63.92 17.9697 64.407 17.8997 64.576 17.8507C65.482 17.5897 65.741 16.7577 66.176 15.9857L68.0441 12.6857C68.3781 12.0947 66.931 12.2387 66.696 12.6557C65.8966 14.308 64.9842 15.9031 63.9651 17.4297L64.5431 17.0827L64.3821 17.1287L65.1521 17.2077L65.104 17.1277V17.4277L65.149 17.3357L64.031 17.7137L64.098 17.7297C64.56 17.8447 65.798 17.1447 64.984 16.9437L64.99 16.9397Z" fill="#4CB050"/>
</g>
<defs>
<clipPath id="clip0_1281_78433">
<rect width="71.148" height="93.877" fill="white" transform="translate(0.36499)"/>
</clipPath>
</defs>
</svg>
