<svg width="111" height="53" viewBox="0 0 111 53" fill="none" xmlns="http://www.w3.org/2000/svg">
<g clip-path="url(#clip0_1281_78397)">
<path d="M0.0449125 40.6221C4.19591 33.1281 11.1889 27.0361 18.0449 22.0511C23.7041 17.8304 30.6739 15.7479 37.7209 16.172C50.6039 16.872 68.0209 22.1231 73.7209 35.1621C79.0519 47.3621 60.6209 57.3211 51.0209 50.5491C46.5489 47.3941 48.1049 40.0921 49.5949 35.7901C52.4749 27.4761 59.3949 21.4601 66.0659 16.1391C73.497 10.0116 82.1036 5.47002 91.3559 2.79406C94.4865 1.92409 97.7395 1.57909 100.983 1.77306C103.011 1.84606 108.698 2.56208 109.683 0.147084C109.916 -0.421916 111.09 0.81105 110.865 1.36205C109.734 4.12905 104.065 3.34307 101.79 3.26207C96.3769 3.1568 91.0032 4.20293 86.0249 6.3311C79.3797 8.98841 73.1714 12.629 67.6079 17.1311C61.7769 21.7511 55.7849 26.7491 52.3009 33.4691C50.6798 36.5789 49.7156 39.9888 49.4679 43.487C49.3399 45.359 49.5489 45.3451 50.5859 47.4041C51.8179 49.8501 51.5939 49.8771 54.0679 50.5041C55.7068 50.938 57.4047 51.1068 59.0969 51.0041C64.9039 50.5811 72.9799 46.3901 73.5169 39.9111C74.1239 32.5931 66.1779 26.6111 60.5169 23.4831C53.6734 19.9044 46.1115 17.9137 38.3929 17.6591C31.2761 17.2584 24.2538 19.4401 18.6169 23.8031C12.0169 28.7421 5.26392 34.553 1.22892 41.836C0.911918 42.409 -0.235081 41.1361 0.0479185 40.6221H0.0449125Z" fill="#1B2333"/>
</g>
<defs>
<clipPath id="clip0_1281_78397">
<rect width="110.894" height="52.743" fill="white"/>
</clipPath>
</defs>
</svg>
