<svg width="70" height="69" viewBox="0 0 70 69" fill="none" xmlns="http://www.w3.org/2000/svg">
<g clip-path="url(#clip0_1281_78424)">
<path d="M18.2698 23.7216C18.1268 23.6816 21.0109 13.7686 21.2259 12.7716C21.3399 12.2456 21.3759 10.9796 21.8149 10.6156C22.5935 10.4524 23.3886 10.3812 24.1838 10.4036C25.8874 10.0529 27.5709 9.61056 29.2268 9.0786C37.6998 6.6566 46.5008 5.7366 55.2438 4.8866C59.2208 4.4996 63.2148 4.41461 67.1908 4.00061C67.2138 4.00061 68.6448 3.8136 68.6238 3.8006C68.9878 4.0646 68.9298 3.3196 68.6238 3.9396C68.3608 4.4786 66.4028 5.0746 65.7798 5.3136C64.0348 5.9826 62.2198 6.4476 60.4798 7.1326C56.4428 8.7236 52.2478 9.77961 48.1388 11.1846C44.4008 12.4626 40.6388 13.7166 36.9148 15.0266C34.7688 15.7826 32.5828 16.3586 30.4308 17.0866C28.5858 17.7106 26.6199 18.0786 24.8179 18.7936C23.46 19.3875 22.2202 20.2212 21.1578 21.2546C19.6309 22.4281 18.1766 23.6931 16.8028 25.0426C16.6748 25.1806 16.7689 25.2846 16.9399 25.2866H17.1058C17.3578 25.2866 17.8148 24.9136 17.3658 24.9076C18.0928 24.9176 19.1308 23.3966 19.6228 22.9596C20.4048 22.2656 21.3029 21.7126 22.0859 21.0146C24.2239 19.1086 26.5859 18.7476 29.2109 17.8766C33.6469 16.4046 38.1728 15.1946 42.5708 13.6036C47.5708 11.7956 52.6278 10.3096 57.6618 8.6346C59.9318 7.8796 62.1299 6.9206 64.4059 6.1616C66.335 5.58348 68.1649 4.71522 69.8329 3.58661C70.0689 3.41661 69.8998 3.2866 69.6708 3.3026C66.8548 3.4596 64.0458 4.02061 61.2178 4.15161C58.4908 4.27861 55.7898 4.4676 53.0708 4.7426C47.2708 5.3276 41.4638 5.98461 35.7438 7.14261C32.8438 7.73061 30.0049 8.5116 27.1589 9.3266C25.486 9.74896 23.7854 10.053 22.0699 10.2366C21.7699 10.2796 21.5418 10.2036 21.2768 10.3746C20.7898 10.6896 20.7899 11.7456 20.6849 12.2086C20.4039 13.4476 20.1309 14.6866 19.8149 15.9176C19.1529 18.4946 17.6539 21.2376 17.5149 23.8836C17.5149 23.9726 17.5658 24.0006 17.6448 24.0226L17.8598 24.0836C18.0728 24.1436 18.6438 23.8266 18.2698 23.7216Z" fill="#4CB050"/>
<path d="M69.0478 3.4507C68.4988 3.72146 68.0179 4.11248 67.6408 4.5947C66.6858 5.5397 65.6158 6.37569 64.5888 7.24069C62.7008 8.83169 60.6528 10.1967 58.7118 11.7187C54.199 15.3959 49.5018 18.841 44.6388 22.0407C40.2178 24.8317 35.4308 26.8157 31.2958 30.0557C30.9748 30.3077 30.4958 30.8557 30.0118 30.6557C29.5998 30.4897 29.1278 29.0557 28.9118 28.5767C28.3948 27.4037 27.9558 26.1827 27.5498 24.9657C26.8498 22.8477 26.2688 20.4587 24.8308 18.7137C24.7078 18.5647 24.2918 18.6847 24.2098 18.8377L24.1268 18.9947C23.9788 19.2727 24.6448 19.2027 24.7488 19.0087L24.8318 18.8517L24.2108 18.9757C25.9808 21.1227 26.5658 24.3757 27.5258 26.9497C27.8828 27.9097 28.6668 31.1237 30.0158 31.2217C31.2098 31.3077 32.6888 29.5217 33.5418 28.8947C36.261 27.11 39.0866 25.493 42.0028 24.0527C46.9389 21.1742 51.6477 17.9224 56.0878 14.3257C58.3778 12.5307 60.6798 10.7817 63.0118 9.0437C64.1308 8.2107 65.1828 7.29469 66.2478 6.39369C67.0698 5.69369 68.2958 4.0937 69.3068 3.7167C69.7438 3.5557 69.3458 3.3307 69.0438 3.4427L69.0478 3.4507Z" fill="#4CB050"/>
<path d="M17.3699 25.2326C20.1269 23.8876 23.285 23.4326 25.944 21.8966C26.333 21.6716 25.744 21.5726 25.53 21.6966C22.937 23.1966 19.805 23.6406 17.106 24.9566C16.69 25.1566 17.0709 25.3776 17.3699 25.2326Z" fill="#4CB050"/>
<path d="M17.5718 25.0527L18.4168 21.3767C18.4738 21.1297 17.8018 21.2327 17.7498 21.4607L16.9048 25.1367C16.8478 25.3837 17.5188 25.2807 17.5718 25.0527Z" fill="#4CB050"/>
<path d="M69.4429 3.14453C67.1239 2.72653 64.7339 3.06753 62.3969 3.11553C59.5969 3.17253 56.7659 2.95653 53.9649 2.85453C48.2569 2.64553 42.5259 2.32453 36.8279 1.93553C31.2569 1.55553 25.6739 1.11053 20.0899 0.967535C17.8121 0.800908 15.5249 0.806589 13.2479 0.984533C11.6751 1.05652 10.1239 1.37926 8.65288 1.94053C8.55288 1.99153 8.33891 2.13453 8.51891 2.24053C11.1409 3.88072 13.6739 5.65924 16.1069 7.56854C16.9947 8.17933 17.9157 8.7402 18.8659 9.24854C19.5181 9.74017 20.2361 10.1377 20.9989 10.4295C21.2119 10.4845 21.7829 10.1635 21.4079 10.0675C20.1372 9.54279 18.932 8.87158 17.8169 8.06754C16.4823 7.16465 15.2034 6.18221 13.9869 5.12554C13.0214 4.36584 12.0072 3.67003 10.9509 3.04254C10.3779 2.69254 9.26689 2.44253 10.0509 1.90853C10.3848 1.80119 10.7332 1.74522 11.0839 1.74253C17.3149 0.642532 23.8669 1.56353 30.1549 1.88753C36.4689 2.21253 42.7769 2.67853 49.0899 3.03253C52.4209 3.21953 55.7559 3.29553 59.0899 3.42653C62.3519 3.55453 65.8149 2.92653 69.0339 3.51053C69.2459 3.54853 69.8179 3.21653 69.4419 3.14853L69.4429 3.14453Z" fill="#4CB050"/>
<path d="M21.471 10.3034C21.1032 10.6654 20.8763 11.1464 20.831 11.6604L20.388 13.5844C20.088 14.9074 19.824 16.2514 19.405 17.5384C18.544 20.1844 16.93 22.6214 16.578 25.4384C16.546 25.6934 17.017 25.5494 17.119 25.4954C17.694 25.1894 18.234 24.5754 18.819 24.3254C19.247 24.1434 18.857 23.9254 18.555 24.0514C17.855 24.3514 17.378 24.9384 16.703 25.2974L17.243 25.3544C17.593 22.5604 19.211 20.0994 20.07 17.4544C20.489 16.1664 20.749 14.8254 21.054 13.5004C21.4055 12.4084 21.6556 11.2863 21.801 10.1484C21.805 10.1238 21.8004 10.0985 21.788 10.0769C21.7756 10.0552 21.7562 10.0385 21.733 10.0294L21.58 9.9674C21.4895 9.93773 21.3928 9.93199 21.2994 9.95074C21.206 9.96949 21.119 10.0121 21.047 10.0744L20.934 10.1944C20.668 10.4774 21.316 10.4664 21.469 10.3044L21.471 10.3034Z" fill="#4CB050"/>
<path d="M14.6469 29.3087L14.5809 29.1867C14.4809 28.9957 14.1039 29.0987 13.9809 29.2217C11.5698 31.6383 9.50521 34.3774 7.84588 37.3607C6.43788 39.8757 4.97189 43.2327 5.03689 46.1697C5.07689 47.9567 6.42089 49.9187 8.40289 49.6937C10.2659 49.4827 11.3549 47.3267 11.3599 45.6317C11.3599 43.9767 10.3819 42.7007 8.65188 43.0987C6.45188 43.6047 5.49089 46.2667 4.58889 48.0487C3.17262 51.1262 2.10659 54.3531 1.41089 57.6687C0.861411 59.4757 0.511352 61.3375 0.36691 63.2207C0.32991 64.8357 1.02289 66.3107 0.984891 67.9207C0.977891 68.1947 1.64689 68.0577 1.65289 67.8367C1.70089 65.8607 0.903898 64.1167 1.1239 62.0937C1.45322 59.8541 1.95471 57.6432 2.6239 55.4807C3.20032 53.0313 4.0159 50.6446 5.0589 48.3547C5.4929 47.4757 5.96489 46.6137 6.44589 45.7597C6.61781 45.3256 6.86229 44.9238 7.16888 44.5717L10.1819 43.9517C10.3813 44.2229 10.518 44.5351 10.5819 44.8657C10.7684 45.6898 10.6958 46.5514 10.3739 47.3327C9.6659 49.1897 7.62588 49.8027 6.34988 48.1227C4.97188 46.3067 6.05989 43.3547 6.70089 41.4297C8.3509 36.855 11.0223 32.7168 14.5119 29.3297L13.9119 29.3647L13.9779 29.4867C14.0999 29.7127 14.7459 29.4937 14.6459 29.3077L14.6469 29.3087Z" fill="#4CB050"/>
</g>
<defs>
<clipPath id="clip0_1281_78424">
<rect width="69.584" height="67.232" fill="white" transform="translate(0.36499 0.838379)"/>
</clipPath>
</defs>
</svg>
